
<svg width="301px" height="201px" viewBox="0 0 301 201" version="1.1" xmlns="http://www.w3.org/2000/svg" xmlns:xlink="http://www.w3.org/1999/xlink">
    <g id="Page-1" stroke="none" stroke-width="1" fill="none" fill-rule="evenodd">
        <g id="tarumim_presentation_03-compressed-(1)" transform="translate(-670.000000, -224.000000)" fill="#124C0E">
            <g id="Group-30">
                <g id="Fill-2" transform="translate(670.000000, 224.000000)">
                    <path d="M150.89,38.967 L106.143,128.443 C102.781,135.165 100.89,142.751 100.89,150.778 C100.89,178.392 123.276,200.778 150.89,200.778 C178.504,200.778 200.89,178.392 200.89,150.778 C200.89,138.073 195.636,128.443 195.636,128.443 L150.89,38.967 Z M50.89,0.778 C23.276,0.778 0.89,23.163 0.89,50.778 C0.89,78.392 23.276,100.778 50.89,100.778 C67.262,100.778 81.795,92.909 90.916,80.747 L150.89,0.778 L50.89,0.778 Z M300.89,50.778 C300.89,78.392 278.504,100.778 250.89,100.778 C234.518,100.778 219.984,92.909 210.863,80.747 L150.89,0.778 L250.89,0.778 C278.504,0.778 300.89,23.163 300.89,50.778 Z"></path>
                </g>
            </g>
        </g>
    </g>
</svg>